<svg xmlns="http://www.w3.org/2000/svg" width="512" height="512" viewBox="0 0 512 512">
  <defs>
    <linearGradient id="g" x1="0%" y1="0%" x2="100%" y2="100%">
      <stop offset="0%" stop-color="#2563eb"/>
      <stop offset="50%" stop-color="#3b82f6"/>
      <stop offset="100%" stop-color="#8b5cf6"/>
    </linearGradient>
  </defs>
  <rect width="512" height="512" rx="128" fill="url(#g)"/>
  <path d="M120 360c40-120 160-240 272-232-80 24-144 144-128 232 8 40-16 72-56 72-48 0-88-40-88-72z" fill="#0ea5e9" opacity="0.8"/>
  <path d="M96 336c32-96 152-208 256-208-72 16-136 120-128 200 6 32-18 56-50 56-42 0-78-32-78-48z" fill="#1e40af" opacity="0.6"/>
</svg>